<svg xmlns="http://www.w3.org/2000/svg" xmlns:xlink="http://www.w3.org/1999/xlink" width="102.608" height="93.477" viewBox="0 0 102.608 93.477">
  <defs>
    <filter id="Union_6" x="0" y="0" width="102.608" height="93.477" filterUnits="userSpaceOnUse">
      <feOffset dy="3" input="SourceAlpha"/>
      <feGaussianBlur stdDeviation="10" result="blur"/>
      <feFlood flood-color="#fff" flood-opacity="0.506"/>
      <feComposite operator="in" in2="blur"/>
      <feComposite in="SourceGraphic"/>
    </filter>
  </defs>
  <g id="email" transform="translate(30 -32.013)">
    <g id="Group_567" data-name="Group 567" transform="translate(0 59.013)">
      <g transform="matrix(1, 0, 0, 1, -30, -27)" filter="url(#Union_6)">
        <path id="Union_6-2" data-name="Union 6" d="M7350.109-2262.068a3.637,3.637,0,0,1-2.494-.94l12.074-12.076c.3.217.58.421.833.6q1.357,1,2.2,1.558a13.5,13.5,0,0,0,2.246,1.141,6.842,6.842,0,0,0,2.617.582h.046a6.842,6.842,0,0,0,2.616-.582,13.476,13.476,0,0,0,2.246-1.141q.846-.559,2.2-1.558l.836-.6,12.072,12.072a3.642,3.642,0,0,1-2.494.94Zm28.167-14.952q3.4-2.375,8.258-5.661a13.111,13.111,0,0,0,2.377-2.069v18.367Zm-31.973-7.731a12.615,12.615,0,0,0,2.4,2.069q5.051,3.432,8.239,5.658l-10.64,10.64Zm21.3,10.51h-.024a3.786,3.786,0,0,1-1.189-.215,7.247,7.247,0,0,1-1.367-.642c-.484-.286-.9-.543-1.237-.773s-.77-.531-1.283-.9c-.269-.193-.486-.349-.656-.473l-.354-.252c-.664-.467-1.468-1.029-2.4-1.678-1.092-.764-2.366-1.647-3.829-2.661q-4.066-2.818-4.874-3.388a11.816,11.816,0,0,1-2.781-2.746,5.561,5.561,0,0,1-1.309-3.247,4.8,4.8,0,0,1,.988-3.09,3.388,3.388,0,0,1,2.817-1.237h35a3.675,3.675,0,0,1,2.674,1.118,3.643,3.643,0,0,1,1.129,2.687,6.286,6.286,0,0,1-1.165,3.59,11.324,11.324,0,0,1-2.9,2.924l-8.721,6.055-2.407,1.673-.354.252-.656.473q-.771.559-1.283.9t-1.237.773a7.261,7.261,0,0,1-1.367.642,3.786,3.786,0,0,1-1.189.215Z" transform="translate(-7316.3 2322.55)" fill="#fff"/>
      </g>
    </g>
  </g>
</svg>
