<svg xmlns="http://www.w3.org/2000/svg" xmlns:xlink="http://www.w3.org/1999/xlink" width="307.222" height="700.666" viewBox="0 0 307.222 700.666">
  <defs>
    <linearGradient id="linear-gradient" x1="2.613" y1="-0.297" x2="0.5" y2="1" gradientUnits="objectBoundingBox">
      <stop offset="0" stop-color="#b41c98" stop-opacity="0.353"/>
      <stop offset="1" stop-color="#ff3994"/>
    </linearGradient>
  </defs>
  <g id="roadmap" transform="translate(-992.88 -217.904)">
    <g id="Union_5" data-name="Union 5" transform="translate(-7462.121 -404.096)" fill="#020119">
      <path d="M8678.337,1283.755H8538.888a42,42,0,1,1-47.2-44.752V1121.568a5.313,5.313,0,0,1,5.314-5.315h217.908V1008.333a42.006,42.006,0,0,1-36.569-38.576H8538.888a42,42,0,1,1-47.2-44.753V806.287a5.313,5.313,0,0,1,5.314-5.315h217.908V705.664a42.014,42.014,0,0,1-36.571-38.578H8538.888a41.984,41.984,0,1,1-.565-10.63H8678.9a42,42,0,1,1,46.638,49.208V806.287a5.316,5.316,0,0,1-5.315,5.315H8502.315V925a42.031,42.031,0,0,1,36.007,34.123H8678.9a42,42,0,1,1,46.638,49.206v113.236a5.316,5.316,0,0,1-5.315,5.313H8502.315V1239a42.029,42.029,0,0,1,36.007,34.122H8678.9a42.015,42.015,0,1,1-.564,10.63Z" stroke="none"/>
      <path d="M 8720.2236328125 1320.665161132812 C 8725.6240234375 1320.665161132812 8730.8623046875 1319.608032226562 8735.7919921875 1317.52294921875 C 8740.5556640625 1315.508544921875 8744.8330078125 1312.62451171875 8748.5068359375 1308.95068359375 C 8752.181640625 1305.276733398438 8755.0654296875 1300.999145507812 8757.080078125 1296.236572265625 C 8759.1650390625 1291.306762695312 8760.22265625 1286.068725585938 8760.22265625 1280.668090820312 C 8760.22265625 1275.267456054688 8759.1650390625 1270.029296875 8757.080078125 1265.099365234375 C 8755.0654296875 1260.336547851562 8752.181640625 1256.05859375 8748.5068359375 1252.384399414062 C 8744.8330078125 1248.710327148438 8740.5556640625 1245.825927734375 8735.7919921875 1243.811401367188 C 8730.8623046875 1241.72607421875 8725.6240234375 1240.668823242188 8720.2236328125 1240.668823242188 C 8715.419921875 1240.668823242188 8710.724609375 1241.5107421875 8706.265625 1243.171264648438 C 8701.9580078125 1244.775756835938 8697.9833984375 1247.099365234375 8694.4521484375 1250.07763671875 C 8690.9462890625 1253.034790039062 8687.99609375 1256.536499023438 8685.68359375 1260.4853515625 C 8683.3212890625 1264.518432617188 8681.7021484375 1268.891235351562 8680.869140625 1273.482299804688 L 8680.5712890625 1275.125366210938 L 8536.65234375 1275.125366210938 L 8536.3544921875 1273.482177734375 C 8535.5947265625 1269.292724609375 8534.173828125 1265.271484375 8532.130859375 1261.5302734375 C 8530.1328125 1257.869140625 8527.5810546875 1254.55126953125 8524.5478515625 1251.669067382812 C 8521.5087890625 1248.781127929688 8518.0595703125 1246.400024414062 8514.294921875 1244.591796875 C 8510.4345703125 1242.737426757812 8506.3193359375 1241.524658203125 8502.064453125 1240.9873046875 L 8500.3154296875 1240.766357421875 L 8500.3154296875 1124.881225585938 L 8720.2236328125 1124.881225585938 C 8722.0517578125 1124.881225585938 8723.5390625 1123.395141601562 8723.5390625 1121.568359375 L 8723.5390625 1006.5693359375 L 8725.2880859375 1006.348327636719 C 8734.869140625 1005.138122558594 8743.6962890625 1000.473937988281 8750.142578125 993.2150268554688 C 8753.32421875 989.6317749023438 8755.8115234375 985.5602416992188 8757.53515625 981.1136474609375 C 8759.318359375 976.5110473632812 8760.22265625 971.651123046875 8760.22265625 966.6687622070312 C 8760.22265625 961.2681274414062 8759.1650390625 956.030029296875 8757.080078125 951.1000366210938 C 8755.0654296875 946.3370971679688 8752.181640625 942.059326171875 8748.5068359375 938.3851318359375 C 8744.8330078125 934.7110595703125 8740.5556640625 931.82666015625 8735.7919921875 929.8121337890625 C 8730.8623046875 927.7268676757812 8725.6240234375 926.6695556640625 8720.2236328125 926.6695556640625 C 8715.419921875 926.6695556640625 8710.724609375 927.511474609375 8706.265625 929.1720581054688 C 8701.9580078125 930.7764892578125 8697.9833984375 933.10009765625 8694.4521484375 936.0783081054688 C 8690.9462890625 939.0354614257812 8687.99609375 942.537109375 8685.68359375 946.4861450195312 C 8683.3212890625 950.5191040039062 8681.7021484375 954.8919677734375 8680.869140625 959.4830322265625 L 8680.5712890625 961.1260986328125 L 8536.65234375 961.1260986328125 L 8536.3544921875 959.4829711914062 C 8535.5947265625 955.2935180664062 8534.173828125 951.2722778320312 8532.130859375 947.5311279296875 C 8530.1328125 943.8699340820312 8527.5810546875 940.5520629882812 8524.5478515625 937.669677734375 C 8521.5087890625 934.7816772460938 8518.0595703125 932.400390625 8514.2958984375 930.5922241210938 C 8510.4345703125 928.737548828125 8506.3193359375 927.524658203125 8502.064453125 926.9871215820312 L 8500.3154296875 926.76611328125 L 8500.3154296875 809.6021118164062 L 8720.2236328125 809.6021118164062 C 8722.0517578125 809.6021118164062 8723.5390625 808.1149291992188 8723.5390625 806.2870483398438 L 8723.5390625 703.9005737304688 L 8725.2880859375 703.6795654296875 C 8734.8681640625 702.4696044921875 8743.6943359375 697.8054809570312 8750.140625 690.5465698242188 C 8753.3232421875 686.9630126953125 8755.8115234375 682.8914184570312 8757.5341796875 678.4447631835938 C 8759.318359375 673.8417358398438 8760.22265625 668.9815063476562 8760.22265625 663.9989624023438 C 8760.22265625 658.5982055664062 8759.1650390625 653.360107421875 8757.080078125 648.4301147460938 C 8755.0654296875 643.6672973632812 8752.181640625 639.389404296875 8748.5068359375 635.7152099609375 C 8744.8330078125 632.0411376953125 8740.5556640625 629.15673828125 8735.7919921875 627.1422119140625 C 8730.8623046875 625.0569458007812 8725.6240234375 623.9996948242188 8720.2236328125 623.9996948242188 C 8715.419921875 623.9996948242188 8710.724609375 624.841552734375 8706.265625 626.5021362304688 C 8701.9580078125 628.1065673828125 8697.9833984375 630.4302368164062 8694.4521484375 633.4083862304688 C 8690.9462890625 636.3656005859375 8687.99609375 639.8671875 8685.68359375 643.8162231445312 C 8683.3212890625 647.8492431640625 8681.7021484375 652.2220458984375 8680.869140625 656.8131103515625 L 8680.5712890625 658.4562377929688 L 8536.65234375 658.4562377929688 L 8536.3544921875 656.8131103515625 C 8535.521484375 652.221923828125 8533.90234375 647.84912109375 8531.5400390625 643.8161010742188 C 8529.2275390625 639.8671875 8526.27734375 636.365478515625 8522.771484375 633.4083862304688 C 8519.2412109375 630.4301147460938 8515.2666015625 628.1065673828125 8510.9580078125 626.5021362304688 C 8506.5 624.841552734375 8501.8037109375 623.9996948242188 8497 623.9996948242188 C 8491.599609375 623.9996948242188 8486.361328125 625.0569458007812 8481.431640625 627.1422119140625 C 8476.66796875 629.15673828125 8472.390625 632.0411376953125 8468.716796875 635.7152099609375 C 8465.0419921875 639.389404296875 8462.158203125 643.6672973632812 8460.1435546875 648.4301147460938 C 8458.05859375 653.360107421875 8457.0009765625 658.5982055664062 8457.0009765625 663.9989624023438 C 8457.0009765625 669.3995971679688 8458.05859375 674.6375732421875 8460.1435546875 679.5673217773438 C 8462.158203125 684.3299560546875 8465.0419921875 688.6076049804688 8468.716796875 692.2813720703125 C 8472.390625 695.9552001953125 8476.66796875 698.8394165039062 8481.4306640625 700.8536987304688 C 8486.361328125 702.9387817382812 8491.599609375 703.9959716796875 8497 703.9959716796875 C 8507.171875 703.9959716796875 8516.8662109375 700.1749267578125 8524.294921875 693.2367553710938 C 8531.6884765625 686.3324584960938 8536.162109375 676.9938354492188 8536.892578125 666.9412841796875 L 8537.02734375 665.0863037109375 L 8680.197265625 665.0863037109375 L 8680.33203125 666.9414672851562 C 8680.669921875 671.6065063476562 8681.810546875 676.1264038085938 8683.7197265625 680.3755493164062 C 8685.5751953125 684.5027465820312 8688.103515625 688.2651977539062 8691.2353515625 691.5584106445312 C 8694.361328125 694.8446044921875 8697.9853515625 697.5560302734375 8702.0078125 699.6173706054688 C 8706.1318359375 701.7313232421875 8710.556640625 703.0980224609375 8715.1591796875 703.6796875 L 8716.908203125 703.9006958007812 L 8716.908203125 802.9720458984375 L 8497 802.9720458984375 C 8495.171875 802.9720458984375 8493.685546875 804.4591064453125 8493.685546875 806.2870483398438 L 8493.685546875 926.7660522460938 L 8491.9365234375 926.987060546875 C 8482.3544921875 928.1972045898438 8473.5283203125 932.861572265625 8467.08203125 940.1206665039062 C 8463.8994140625 943.7041015625 8461.412109375 947.77587890625 8459.6884765625 952.22265625 C 8457.9052734375 956.8255615234375 8457.0009765625 961.6859130859375 8457.0009765625 966.6687622070312 C 8457.0009765625 972.0689697265625 8458.05859375 977.3065795898438 8460.1435546875 982.236328125 C 8462.158203125 986.9988403320312 8465.0419921875 991.2765502929688 8468.716796875 994.9505004882812 C 8472.390625 998.6245727539062 8476.66796875 1001.508850097656 8481.431640625 1003.523315429688 C 8486.361328125 1005.608581542969 8491.599609375 1006.665832519531 8497 1006.665832519531 C 8507.171875 1006.665832519531 8516.8662109375 1002.844848632812 8524.294921875 995.9066772460938 C 8531.6884765625 989.0023803710938 8536.162109375 979.6637573242188 8536.892578125 969.6112060546875 L 8537.02734375 967.7562255859375 L 8680.19921875 967.7562255859375 L 8680.333984375 969.6115112304688 C 8680.671875 974.27685546875 8681.8115234375 978.796875 8683.720703125 983.046142578125 C 8685.5751953125 987.1734619140625 8688.103515625 990.9358520507812 8691.2353515625 994.2288818359375 C 8694.361328125 997.5150146484375 8697.9853515625 1000.226196289062 8702.0068359375 1002.287292480469 C 8706.130859375 1004.400939941406 8710.556640625 1005.767333984375 8715.1591796875 1006.348327636719 L 8716.908203125 1006.569213867188 L 8716.908203125 1118.253295898438 L 8497 1118.253295898438 C 8495.171875 1118.253295898438 8493.685546875 1119.740478515625 8493.685546875 1121.568359375 L 8493.685546875 1240.766357421875 L 8491.9365234375 1240.9873046875 C 8482.3544921875 1242.197265625 8473.52734375 1246.861450195312 8467.0810546875 1254.120361328125 C 8463.8994140625 1257.70361328125 8461.412109375 1261.775268554688 8459.6884765625 1266.22216796875 C 8457.9052734375 1270.824951171875 8457.0009765625 1275.685302734375 8457.0009765625 1280.668090820312 C 8457.0009765625 1286.068725585938 8458.05859375 1291.306762695312 8460.1435546875 1296.236572265625 C 8462.158203125 1300.999145507812 8465.0419921875 1305.276733398438 8468.716796875 1308.95068359375 C 8472.390625 1312.62451171875 8476.66796875 1315.508544921875 8481.4306640625 1317.52294921875 C 8486.361328125 1319.608032226562 8491.599609375 1320.665161132812 8497 1320.665161132812 C 8507.171875 1320.665161132812 8516.8662109375 1316.844116210938 8524.294921875 1309.905883789062 C 8531.6884765625 1303.001708984375 8536.162109375 1293.6630859375 8536.892578125 1283.610473632812 L 8537.02734375 1281.755493164062 L 8680.197265625 1281.755493164062 L 8680.33203125 1283.610473632812 C 8681.0625 1293.6630859375 8685.5361328125 1303.001586914062 8692.9296875 1309.905883789062 C 8700.3583984375 1316.84423828125 8710.0517578125 1320.665161132812 8720.2236328125 1320.665161132812 M 8720.2236328125 1322.665161132812 C 8698.06640625 1322.665161132812 8679.91796875 1305.50830078125 8678.3369140625 1283.755493164062 L 8538.8876953125 1283.755493164062 C 8537.306640625 1305.50830078125 8519.158203125 1322.665161132812 8497 1322.665161132812 C 8473.8046875 1322.665161132812 8455.0009765625 1303.863403320312 8455.0009765625 1280.668090820312 C 8455.0009765625 1259.273681640625 8470.9990234375 1241.615478515625 8491.685546875 1239.003051757812 L 8491.685546875 1121.568359375 C 8491.685546875 1118.632690429688 8494.0625 1116.253295898438 8497 1116.253295898438 L 8714.908203125 1116.253295898438 L 8714.908203125 1008.332580566406 C 8695.2255859375 1005.84765625 8679.7890625 989.7418823242188 8678.3388671875 969.7562255859375 L 8538.8876953125 969.7562255859375 C 8537.306640625 991.509033203125 8519.158203125 1008.665832519531 8497 1008.665832519531 C 8473.8046875 1008.665832519531 8455.0009765625 989.8619384765625 8455.0009765625 966.6687622070312 C 8455.0009765625 945.2742309570312 8471 927.6156616210938 8491.685546875 925.0027465820312 L 8491.685546875 806.2870483398438 C 8491.685546875 803.351318359375 8494.0625 800.9720458984375 8497 800.9720458984375 L 8714.908203125 800.9720458984375 L 8714.908203125 705.6638793945312 C 8695.2275390625 703.1767578125 8679.7880859375 687.0711059570312 8678.3369140625 667.0863037109375 L 8538.8876953125 667.0863037109375 C 8537.306640625 688.839111328125 8519.158203125 705.9959716796875 8497 705.9959716796875 C 8473.8046875 705.9959716796875 8455.0009765625 687.1942138671875 8455.0009765625 663.9989624023438 C 8455.0009765625 640.8035888671875 8473.8046875 621.9996948242188 8497 621.9996948242188 C 8517.62109375 621.9996948242188 8534.7685546875 636.8606567382812 8538.322265625 656.4562377929688 L 8678.9013671875 656.4562377929688 C 8682.455078125 636.8606567382812 8699.603515625 621.9996948242188 8720.2236328125 621.9996948242188 C 8743.4189453125 621.9996948242188 8762.22265625 640.8035888671875 8762.22265625 663.9989624023438 C 8762.22265625 685.3931884765625 8746.220703125 703.051513671875 8725.5390625 705.6638793945312 L 8725.5390625 806.2870483398438 C 8725.5390625 809.2227783203125 8723.1572265625 811.6021118164062 8720.2236328125 811.6021118164062 L 8502.3154296875 811.6021118164062 L 8502.3154296875 925.0028686523438 C 8520.5107421875 927.301513671875 8535.0791015625 941.2420043945312 8538.322265625 959.1260986328125 L 8678.9013671875 959.1260986328125 C 8682.455078125 939.5305786132812 8699.603515625 924.6695556640625 8720.2236328125 924.6695556640625 C 8743.4189453125 924.6695556640625 8762.22265625 943.4735107421875 8762.22265625 966.6687622070312 C 8762.22265625 988.061279296875 8746.224609375 1005.719665527344 8725.5390625 1008.332580566406 L 8725.5390625 1121.568359375 C 8725.5390625 1124.501831054688 8723.1572265625 1126.881225585938 8720.2236328125 1126.881225585938 L 8502.3154296875 1126.881225585938 L 8502.3154296875 1239.003051757812 C 8520.509765625 1241.301025390625 8535.0791015625 1255.24072265625 8538.322265625 1273.125366210938 L 8678.9013671875 1273.125366210938 C 8682.455078125 1253.529907226562 8699.603515625 1238.668823242188 8720.2236328125 1238.668823242188 C 8743.4189453125 1238.668823242188 8762.22265625 1257.472778320312 8762.22265625 1280.668090820312 C 8762.22265625 1303.863403320312 8743.4189453125 1322.665161132812 8720.2236328125 1322.665161132812 Z" stroke="none" fill="rgba(64,153,219,0.27)"/>
    </g>
    <path id="Path_803" data-name="Path 803" d="M4.216-79.138,2.061-73.315Q-.094-67.491-2.748-59.78T-7.253-45.712q-1.852,6.358-1.46,8L-9-37.662a2.713,2.713,0,0,1-.766,0,3.552,3.552,0,0,1-1.015-.285,3.527,3.527,0,0,1-1.069-.766,4.307,4.307,0,0,1-.908-1.478,9.879,9.879,0,0,1-.552-2.4q-.036-3.312,2.885-12.466t6.091-17.844a16.9,16.9,0,0,1-2.885,1.923,4.655,4.655,0,0,1-3.33.374,8.777,8.777,0,0,1-2.938-1.425,13.653,13.653,0,0,1-2.1-1.87l-.784-.89a7.486,7.486,0,0,0,7.23-1.318,36.886,36.886,0,0,0,5.948-5.378A9.924,9.924,0,0,1-.7-83.7a1.279,1.279,0,0,1,.784.036,6.933,6.933,0,0,1,1.478.516,4.722,4.722,0,0,1,1.692,1.371A4.911,4.911,0,0,1,4.216-79.138Z" transform="translate(1041.258 319.473)" fill="url(#linear-gradient)"/>
    <path id="Path_812" data-name="Path 812" d="M-7.146-7.687A39.249,39.249,0,0,0-2.7-7.28a38.576,38.576,0,0,0,7.414-.354A14.861,14.861,0,0,0,11.5-10.2l.23.425a4.477,4.477,0,0,1,.389,1.168,4.5,4.5,0,0,1,.018,1.646A4.465,4.465,0,0,1,11.327-5.1,6.572,6.572,0,0,1,9.168-3.3a14.677,14.677,0,0,1-5.521,1.38,61.57,61.57,0,0,1-7.272.212q-3.733-.106-6.405-.336l-2.672-.23h.035a6.043,6.043,0,0,1-1.2-.549,5.067,5.067,0,0,1-1.646-1.522,4.371,4.371,0,0,1-.69-2.813l4.583-4.14A131.8,131.8,0,0,0-1.554-21.63,115.252,115.252,0,0,0,7.894-34.122q3.963-6.122,2.973-8.316l-2.92.283A28.809,28.809,0,0,0,.675-40.191a29.43,29.43,0,0,0-8.882,5.751l-.035.088a.949.949,0,0,0-.053.23.564.564,0,0,0,.053.3.976.976,0,0,0,.248.318,1.574,1.574,0,0,0,.531.283,3.511,3.511,0,0,0,.92.159l-.372.389a10.2,10.2,0,0,1-.991.885,6.591,6.591,0,0,1-1.4.849,3.576,3.576,0,0,1-1.575.336,2.4,2.4,0,0,1-1.539-.672,5.379,5.379,0,0,1-1.309-2.141q-.849-3.185,3.061-6.476a35.246,35.246,0,0,1,9.219-5.5,22.7,22.7,0,0,1,8.741-2.141,10.527,10.527,0,0,1,6.1,2.424,7.927,7.927,0,0,1,2.831,6.547q.018,4.3-5.007,10.7Q1.029-15.72-7.146-7.687Z" transform="translate(1256.734 281.796)" fill="url(#linear-gradient)"/>
    <path id="Path_813" data-name="Path 813" d="M15.044-42.8q.672,1.168-1.486,3.733a51.248,51.248,0,0,1-5.786,5.68Q4.144-30.269.393-27.4A14.182,14.182,0,0,1,12.071-21a8.954,8.954,0,0,1,.69,8.245Q11.116-8.151,2.2-3.975-3.889-1.392-7.853-1.781a11.033,11.033,0,0,1-6.1-2.176A9.48,9.48,0,0,1-16.77-7.373a4.534,4.534,0,0,1-.46-1.646,3.315,3.315,0,0,1,.159-1.274,3.367,3.367,0,0,1,.478-.92,3.456,3.456,0,0,1,.5-.549l.212-.177a5.418,5.418,0,0,0,1.8,3.185A6.072,6.072,0,0,0-11.126-7.5a11.2,11.2,0,0,0,3.2,0,20.34,20.34,0,0,0,2.6-.531l1.044-.3a54.625,54.625,0,0,0,5.414-2.725,29.894,29.894,0,0,0,3.627-2.442A16.417,16.417,0,0,0,6.94-15.547,8.485,8.485,0,0,0,8.055-17.14a4.58,4.58,0,0,0,.407-1.026l.071-.354a6.511,6.511,0,0,0-3.981-2.406,22.926,22.926,0,0,0-5.68-.584,46.516,46.516,0,0,0-5.131.336l-2.159.283-3.114-5.025L7.541-41.982q-3.963.425-8.033.761t-6.476.336a6.868,6.868,0,0,1-2.194-.354,3.256,3.256,0,0,1-1.309-.832,2.963,2.963,0,0,1-.637-1.062,3.4,3.4,0,0,1-.177-1.044,3.857,3.857,0,0,1,.071-.814l.071-.318,2.672-.389q2.672-.389,6.423-.867t7.237-.814a42.784,42.784,0,0,1,5.326-.265,4.8,4.8,0,0,1,2.212.584,4.108,4.108,0,0,1,1.345,1.221,4.883,4.883,0,0,1,.672,1.4,7.485,7.485,0,0,1,.248,1.168Z" transform="translate(1033.737 587.265)" fill="url(#linear-gradient)"/>
    <path id="Path_815" data-name="Path 815" d="M-2.937-24.96h.885a27.333,27.333,0,0,1,6.795.672,7.321,7.321,0,0,1,4.565,3.645q1.628,3.4-1.469,7.892A31.685,31.685,0,0,1-.636-4.612Q-6.086-1.25-9.784-2.276T-12.314-7.8q.071.035.177.389a3.058,3.058,0,0,0,.442.973,1.69,1.69,0,0,0,1.079.69,3.84,3.84,0,0,0,2.176-.425A19.11,19.11,0,0,0-4.671-8.54,33.282,33.282,0,0,0,.992-13.99a21.141,21.141,0,0,0,2.69-4.176l.708-1.628L2.8-19.758a23.212,23.212,0,0,1-3.91-.318,18.441,18.441,0,0,1-4.707-1.416,10.511,10.511,0,0,1-4.052-3.185,7.992,7.992,0,0,1-.885-7.573A29.945,29.945,0,0,1-5.626-41.1,3.854,3.854,0,0,1-7.2-41.876a2.712,2.712,0,0,1-.761-1.079,3.618,3.618,0,0,1-.23-1.115,3.946,3.946,0,0,1,.053-.885l.071-.354,1.946-.283q1.946-.283,4.884-.672.283-.318.6-.637l.655-.035q.655-.035,1.61-.035a17.291,17.291,0,0,1,1.911.106q3.15-.354,5.839-.584a40.932,40.932,0,0,1,4.176-.195,4.758,4.758,0,0,1,2.229.584,4.161,4.161,0,0,1,1.327,1.221,5.3,5.3,0,0,1,.69,1.4,5.481,5.481,0,0,1,.248,1.168l.035.478-2.583.3q-2.583.3-6.281.672t-7.272.655a43.062,43.062,0,0,0-4.724,5.043,22.4,22.4,0,0,0-3.769,7.131l-.142.283a2.922,2.922,0,0,0-.23.725,2.505,2.505,0,0,0,0,.938,2.034,2.034,0,0,0,.478.955,2.822,2.822,0,0,0,1.221.761A8.1,8.1,0,0,0-2.937-24.96Z" transform="translate(1035.514 901.814)" fill="url(#linear-gradient)"/>
    <path id="Path_816" data-name="Path 816" d="M-3.916-30.228a13.22,13.22,0,0,1,3.5.159,15.222,15.222,0,0,1,5.5,2.106,18.367,18.367,0,0,1,5.751,5.874l.407,1.239a12.2,12.2,0,0,1,.478,3.291,12.892,12.892,0,0,1-.8,4.583,15.236,15.236,0,0,1-3.309,5.2A26.4,26.4,0,0,1,.543-2.625L-.59-2.306a10.887,10.887,0,0,1-2.884.318A12.94,12.94,0,0,1-7.349-2.66a10.832,10.832,0,0,1-4.158-2.619A17.593,17.593,0,0,1-15.17-10.87q-1.769-4.777.5-10.917A55.222,55.222,0,0,1-8.464-33.731a107.233,107.233,0,0,1,7.308-9.7L2.206-47.32l.513-.071a11.533,11.533,0,0,1,1.274-.088,11.994,11.994,0,0,1,1.575.071,3.742,3.742,0,0,1,1.4.407,1.517,1.517,0,0,1,.761.991L5.762-43.551Q3.8-41.092,1.109-37.5T-3.916-30.228ZM-6.535-7.154A14.85,14.85,0,0,0,2.79-12.887,11.716,11.716,0,0,0,5.285-23.362l-.088-.23a2.922,2.922,0,0,0-.318-.566,2.238,2.238,0,0,0-.69-.619A3.565,3.565,0,0,0,3-25.2a5.255,5.255,0,0,0-1.769.018,11.779,11.779,0,0,0-2.477.725,24.467,24.467,0,0,0-3.327,1.681,48.019,48.019,0,0,0-4.264,2.884A24.984,24.984,0,0,0-10.481-10.8Q-10.322-6.871-6.535-7.154Z" transform="translate(1259.141 901.809)" fill="url(#linear-gradient)"/>
    <path id="Path_814" data-name="Path 814" d="M9.144-42.337l.425.071a5.051,5.051,0,0,1,1.062.336,5.951,5.951,0,0,1,1.292.761,4.494,4.494,0,0,1,1.15,1.345,4.942,4.942,0,0,1,.6,2.088l-1.186,3.22Q11.3-31.3,9.6-26.484q.6-.318,1.239-.637l.159.053a1.626,1.626,0,0,1,.372.195,1.647,1.647,0,0,1,.389.372,1.144,1.144,0,0,1,.212.6,2.307,2.307,0,0,1-.124.885,4.876,4.876,0,0,1-.619,1.2,10.82,10.82,0,0,1-1.345,1.575,25.043,25.043,0,0,1-2.442,2.123Q5.322-13.779,3.924-8.577T2.916-1.853l-.3.053a2.71,2.71,0,0,1-.761,0A3.645,3.645,0,0,1,.828-2.1,3.423,3.423,0,0,1-.251-2.879a4.672,4.672,0,0,1-.9-1.469,8.452,8.452,0,0,1-.531-2.389q-.142-2.69,1.734-9.13A28.378,28.378,0,0,1-8.656-13.39l-1.168-.3A14.143,14.143,0,0,1-12.5-14.735a8.806,8.806,0,0,1-2.654-2.017,5.056,5.056,0,0,1-1.256-3.22l1.876-3.893a60.072,60.072,0,0,1,6.688-10.05,87.652,87.652,0,0,1,13.377-13.2l1.009-.195q1.009-.195,2.371-.318a13.249,13.249,0,0,1,2.459-.018q1.1.106,1.345.655t-.955,1.716q-.531.5-1.274,1.239Q7.516-41.276,2.845-36.6a120.208,120.208,0,0,0-8.582,9.519q-3.91,4.848-4.654,8.139l.018.018a.218.218,0,0,0,.088.035q.071.018.177.035t.283.035A1.8,1.8,0,0,0-9.4-18.84q.248-.035.584-.088t.779-.142a10.024,10.024,0,0,0,1.009-.265l1.256-.389q.69-.212,1.522-.531t1.822-.708q.991-.389,2.159-.885T2.243-22.98Q3.836-27.793,5.411-32.2t2.654-7.272Z" transform="translate(1258.19 587.309)" fill="url(#linear-gradient)"/>
  </g>
</svg>
